<svg width="180" height="180" viewBox="0 0 180 180" fill="none" xmlns="http://www.w3.org/2000/svg">
<circle cx="90" cy="90" r="90" fill="url(#paint0_linear_1_342)"/>
<path d="M110.68 98.1156H43.8C42.1378 98.1156 40.8667 96.8444 40.8667 95.1822V48.9333C40.8667 47.2711 42.1378 46 43.8 46H110.68C112.342 46 113.613 47.2711 113.613 48.9333V95.1822C113.613 96.7467 112.342 98.1156 110.68 98.1156Z" fill="#BBC3E0"/>
<path d="M116.547 115.031H37.9333C36.2711 115.031 35 113.76 35 112.098V57.44C35 55.7778 36.2711 54.5067 37.9333 54.5067H116.547C118.209 54.5067 119.48 55.7778 119.48 57.44V112.098C119.48 113.662 118.209 115.031 116.547 115.031Z" fill="url(#paint1_linear_1_342)"/>
<path d="M98.8489 65.8489H55.7289V68.7822H98.8489V65.8489Z" fill="#BBC3E0"/>
<path d="M92.6889 74.5511H61.6933V77.4845H92.6889V74.5511Z" fill="#BBC3E0"/>
<path d="M104.031 83.2533H50.3511V86.1867H104.031V83.2533Z" fill="#BBC3E0"/>
<path d="M96.6978 105.351H57.7822C53.9689 105.351 50.84 102.222 50.84 98.4089C50.84 94.5956 53.9689 91.4667 57.7822 91.4667H96.6978C100.511 91.4667 103.64 94.5956 103.64 98.4089C103.64 102.222 100.511 105.351 96.6978 105.351Z" fill="url(#paint2_linear_1_342)"/>
<path d="M69.2595 97.8497C69.4837 97.8395 69.6569 97.9108 69.7792 98.0637C69.9117 98.2165 69.978 98.3949 69.978 98.5987C69.978 98.8128 69.9117 98.9962 69.7792 99.1491C69.6569 99.3019 69.4837 99.3733 69.2595 99.3631L67.9906 99.2867L68.6938 100.341C68.7754 100.474 68.8161 100.596 68.8161 100.708C68.8161 100.912 68.7244 101.091 68.541 101.243C68.3575 101.396 68.1588 101.473 67.9448 101.473C67.6798 101.473 67.4913 101.35 67.3791 101.106L66.8135 99.9593L66.2479 101.106C66.1358 101.35 65.9421 101.473 65.667 101.473C65.453 101.473 65.2542 101.396 65.0708 101.243C64.8975 101.091 64.8109 100.912 64.8109 100.708C64.8109 100.596 64.8517 100.474 64.9332 100.341L65.6364 99.2867L64.3676 99.3631C64.1434 99.3733 63.965 99.3019 63.8325 99.1491C63.7102 98.9962 63.6491 98.8178 63.6491 98.614C63.6491 98.4 63.7102 98.2165 63.8325 98.0637C63.965 97.9108 64.1434 97.8395 64.3676 97.8497L65.6364 97.9261L64.9332 96.8713C64.8517 96.7592 64.8109 96.6369 64.8109 96.5044C64.8109 96.3006 64.8975 96.1273 65.0708 95.9846C65.2542 95.8419 65.453 95.7706 65.667 95.7706C65.932 95.7706 66.1256 95.8878 66.2479 96.1222L66.8135 97.2687L67.3791 96.1222C67.5116 95.8776 67.7104 95.7553 67.9753 95.7553C68.1792 95.7553 68.3677 95.8317 68.541 95.9846C68.7244 96.1273 68.8161 96.3006 68.8161 96.5044C68.8161 96.6165 68.7754 96.7388 68.6938 96.8713L67.9906 97.9261L69.2595 97.8497Z" fill="#FFFCFA"/>
<path d="M80.4711 97.8497C80.6953 97.8395 80.8685 97.9108 80.9908 98.0637C81.1233 98.2165 81.1896 98.3949 81.1896 98.5987C81.1896 98.8128 81.1233 98.9962 80.9908 99.1491C80.8685 99.3019 80.6953 99.3733 80.4711 99.3631L79.2022 99.2867L79.9055 100.341C79.987 100.474 80.0278 100.596 80.0278 100.708C80.0278 100.912 79.936 101.091 79.7526 101.243C79.5691 101.396 79.3704 101.473 79.1564 101.473C78.8914 101.473 78.7029 101.35 78.5908 101.106L78.0251 99.9593L77.4595 101.106C77.3474 101.35 77.1538 101.473 76.8786 101.473C76.6646 101.473 76.4658 101.396 76.2824 101.243C76.1091 101.091 76.0225 100.912 76.0225 100.708C76.0225 100.596 76.0633 100.474 76.1448 100.341L76.848 99.2867L75.5792 99.3631C75.355 99.3733 75.1766 99.3019 75.0441 99.1491C74.9218 98.9962 74.8607 98.8178 74.8607 98.614C74.8607 98.4 74.9218 98.2165 75.0441 98.0637C75.1766 97.9108 75.355 97.8395 75.5792 97.8497L76.848 97.9261L76.1448 96.8713C76.0633 96.7592 76.0225 96.6369 76.0225 96.5044C76.0225 96.3006 76.1091 96.1273 76.2824 95.9846C76.4658 95.8419 76.6646 95.7706 76.8786 95.7706C77.1436 95.7706 77.3372 95.8878 77.4595 96.1222L78.0251 97.2687L78.5908 96.1222C78.7232 95.8776 78.922 95.7553 79.187 95.7553C79.3908 95.7553 79.5793 95.8317 79.7526 95.9846C79.936 96.1273 80.0278 96.3006 80.0278 96.5044C80.0278 96.6165 79.987 96.7388 79.9055 96.8713L79.2022 97.9261L80.4711 97.8497Z" fill="#FFFCFA"/>
<path d="M91.6827 97.8497C91.9069 97.8395 92.0802 97.9108 92.2025 98.0637C92.3349 98.2165 92.4012 98.3949 92.4012 98.5987C92.4012 98.8128 92.3349 98.9962 92.2025 99.1491C92.0802 99.3019 91.9069 99.3733 91.6827 99.3631L90.4138 99.2867L91.1171 100.341C91.1986 100.474 91.2394 100.596 91.2394 100.708C91.2394 100.912 91.1476 101.091 90.9642 101.243C90.7807 101.396 90.582 101.473 90.368 101.473C90.103 101.473 89.9145 101.35 89.8024 101.106L89.2367 99.9593L88.6711 101.106C88.559 101.35 88.3654 101.473 88.0902 101.473C87.8762 101.473 87.6774 101.396 87.494 101.243C87.3207 101.091 87.2341 100.912 87.2341 100.708C87.2341 100.596 87.2749 100.474 87.3564 100.341L88.0596 99.2867L86.7908 99.3631C86.5666 99.3733 86.3882 99.3019 86.2557 99.1491C86.1334 98.9962 86.0723 98.8178 86.0723 98.614C86.0723 98.4 86.1334 98.2165 86.2557 98.0637C86.3882 97.9108 86.5666 97.8395 86.7908 97.8497L88.0596 97.9261L87.3564 96.8713C87.2749 96.7592 87.2341 96.6369 87.2341 96.5044C87.2341 96.3006 87.3207 96.1273 87.494 95.9846C87.6774 95.8419 87.8762 95.7706 88.0902 95.7706C88.3552 95.7706 88.5488 95.8878 88.6711 96.1222L89.2367 97.2687L89.8024 96.1222C89.9348 95.8776 90.1336 95.7553 90.3986 95.7553C90.6024 95.7553 90.7909 95.8317 90.9642 95.9846C91.1476 96.1273 91.2394 96.3006 91.2394 96.5044C91.2394 96.6165 91.1986 96.7388 91.1171 96.8713L90.4138 97.9261L91.6827 97.8497Z" fill="#FFFCFA"/>
<path d="M138.84 108.773H132.973V95.3778C132.973 90.7822 129.258 87.0667 124.662 87.0667C120.067 87.0667 116.351 90.7822 116.351 95.3778V108.773H110.484V95.3778C110.484 87.5556 116.84 81.2 124.662 81.2C132.484 81.2 138.84 87.5556 138.84 95.3778V108.773Z" fill="url(#paint3_linear_1_342)"/>
<path d="M141.969 134.587H107.453C105.791 134.587 104.52 133.316 104.52 131.653V106.916C104.52 105.253 105.791 103.982 107.453 103.982H142.067C143.729 103.982 145 105.253 145 106.916V131.653C144.902 133.316 143.631 134.587 141.969 134.587Z" fill="url(#paint4_linear_1_342)"/>
<path d="M124.76 120.507C122.902 120.507 121.338 118.942 121.338 117.084C121.338 115.227 122.902 113.662 124.76 113.662C126.618 113.662 128.182 115.227 128.182 117.084C128.182 118.942 126.618 120.507 124.76 120.507Z" fill="white"/>
<path d="M126.227 117.084H123.293V124.907H126.227V117.084Z" fill="white"/>
<defs>
<linearGradient id="paint0_linear_1_342" x1="95.9757" y1="-6.02351" x2="89.9893" y2="180" gradientUnits="userSpaceOnUse">
<stop stop-color="#FFCC9D"/>
<stop offset="1" stop-color="#FFFAF5"/>
</linearGradient>
<linearGradient id="paint1_linear_1_342" x1="77.24" y1="54.5067" x2="77.24" y2="115.031" gradientUnits="userSpaceOnUse">
<stop stop-color="white"/>
<stop offset="1" stop-color="#DADFF2"/>
</linearGradient>
<linearGradient id="paint2_linear_1_342" x1="77.24" y1="91.4667" x2="77.24" y2="105.351" gradientUnits="userSpaceOnUse">
<stop stop-color="#69D9C9"/>
<stop offset="1" stop-color="#65B2A8"/>
</linearGradient>
<linearGradient id="paint3_linear_1_342" x1="124.804" y1="108.606" x2="125.525" y2="75.3143" gradientUnits="userSpaceOnUse">
<stop stop-color="#FE965C"/>
<stop offset="1" stop-color="#FDB46C"/>
</linearGradient>
<linearGradient id="paint4_linear_1_342" x1="124.963" y1="134.401" x2="125.585" y2="97.4426" gradientUnits="userSpaceOnUse">
<stop stop-color="#FE965C"/>
<stop offset="1" stop-color="#FDB46C"/>
</linearGradient>
</defs>
</svg>
