<svg width="21" height="22" viewBox="0 0 21 22" fill="none" xmlns="http://www.w3.org/2000/svg">
<path fill-rule="evenodd" clip-rule="evenodd" d="M3.08571 0H17.8986C19.6257 0 21 1.41995 21 3.22847V18.7406C21 20.5491 19.6257 22 17.8986 22H3.08571C1.35866 22 0 20.5491 0 18.7406V3.22847C0 1.41995 1.35866 0 3.08571 0ZM17.8986 20.0913C18.6098 20.0913 19.217 19.4853 19.217 18.7406V3.22847C19.217 2.48379 18.6098 1.90868 17.8986 1.90868H3.08571C2.37458 1.90868 1.78302 2.48379 1.78302 3.22847V18.7406C1.78302 19.4853 2.37458 20.0913 3.08571 20.0913H17.8986Z" fill="#CCC9C5"/>
<path d="M15.7384 7.83562H8.85958C8.35083 7.83562 7.93835 8.2069 7.93835 8.73973C7.93835 9.27255 8.35073 9.64384 8.85958 9.64384H15.7384C16.2471 9.64384 16.6596 9.27255 16.6596 8.73973C16.6596 8.2069 16.2471 7.83562 15.7384 7.83562Z" fill="#CCC9C5"/>
<ellipse cx="5.43746" cy="8.74334" rx="0.921226" ry="0.964685" fill="#CCC9C5"/>
<path d="M15.7384 11.5525H8.85958C8.35083 11.5525 7.93835 11.9741 7.93835 12.5068C7.93835 13.0396 8.35073 13.4612 8.85958 13.4612H15.7384C16.2471 13.4612 16.6596 13.0396 16.6596 12.5068C16.6596 11.9741 16.2471 11.5525 15.7384 11.5525Z" fill="#CCC9C5"/>
<ellipse cx="5.43746" cy="12.5377" rx="0.921226" ry="0.964685" fill="#CCC9C5"/>
<path d="M15.7384 15.3699H8.85958C8.35083 15.3699 7.93835 15.7915 7.93835 16.3242C7.93835 16.8569 8.35073 17.2785 8.85958 17.2785H15.7384C16.2471 17.2785 16.6596 16.8569 16.6596 16.3242C16.6596 15.7915 16.2471 15.3699 15.7384 15.3699Z" fill="#CCC9C5"/>
<ellipse cx="5.43746" cy="16.3321" rx="0.921226" ry="0.964685" fill="#CCC9C5"/>
<path d="M15.7384 4.01826H5.03207C4.52331 4.01826 4.11084 4.43978 4.11084 4.9726C4.11084 5.50542 4.52321 5.92694 5.03207 5.92694H15.7385C16.2473 5.92694 16.6597 5.50542 16.6597 4.9726C16.6596 4.43978 16.2472 4.01826 15.7384 4.01826Z" fill="#CCC9C5"/>
</svg>
