<svg width="180" height="180" viewBox="0 0 180 180" fill="none" xmlns="http://www.w3.org/2000/svg">
<circle cx="90" cy="90" r="90" fill="url(#paint0_linear_1_296)"/>
<path d="M110.101 135.792H66.7178C63.5364 135.792 60.9334 133.189 60.9334 130.008V44.7844C60.9334 41.603 63.5364 39 66.7178 39H110.101C113.282 39 115.885 41.603 115.885 44.7844V130.008C115.885 133.286 113.282 135.792 110.101 135.792Z" fill="url(#paint1_linear_1_296)"/>
<path d="M115.885 135.792H72.5022C69.3208 135.792 66.7178 133.189 66.7178 130.008V44.7844C66.7178 41.603 69.3208 39 72.5022 39H115.885C119.067 39 121.67 41.603 121.67 44.7844V130.008C121.67 133.286 119.067 135.792 115.885 135.792Z" fill="url(#paint2_linear_1_296)"/>
<path d="M103.931 47.0982H84.4566C82.8177 47.0982 81.5644 45.8449 81.5644 44.206V39.9641H106.823V44.206C106.823 45.8449 105.57 47.0982 103.931 47.0982Z" fill="#BBC3E0"/>
<path d="M125.378 140.755C136.08 140.755 144.755 132.08 144.755 121.378C144.755 110.676 136.08 102 125.378 102C114.676 102 106 110.676 106 121.378C106 132.08 114.676 140.755 125.378 140.755Z" fill="url(#paint3_linear_1_296)"/>
<path d="M123.713 127.822C123.327 127.822 122.941 127.629 122.652 127.436L117.012 121.797C116.453 121.238 116.453 120.331 117.012 119.772C117.571 119.213 118.478 119.213 119.037 119.772L123.195 123.931C123.481 124.216 123.944 124.216 124.23 123.931L132.148 116.012C132.707 115.453 133.614 115.453 134.173 116.012C134.732 116.571 134.732 117.478 134.173 118.037L124.773 127.436C124.484 127.726 124.098 127.822 123.713 127.822Z" fill="white"/>
<path d="M84.4566 93.6626H39.1455C36.8317 93.6626 35 91.8308 35 89.5171V63.4873C35 61.1735 36.8317 59.3418 39.1455 59.3418H84.4566C86.7704 59.3418 88.6021 61.1735 88.6021 63.4873V89.5171C88.6021 91.7344 86.7704 93.6626 84.4566 93.6626Z" fill="url(#paint4_linear_1_296)"/>
<path d="M74.6231 67.1508H49.1718C48.3731 67.1508 47.7257 67.7982 47.7257 68.5969C47.7257 69.3955 48.3731 70.043 49.1718 70.043H74.6231C75.4218 70.043 76.0692 69.3955 76.0692 68.5969C76.0692 67.7982 75.4218 67.1508 74.6231 67.1508Z" fill="#FFFFFE"/>
<path d="M71.7309 75.0561H51.9676C51.1689 75.0561 50.5215 75.7035 50.5215 76.5022C50.5215 77.3008 51.1689 77.9483 51.9676 77.9483H71.7309C72.5296 77.9483 73.177 77.3008 73.177 76.5022C73.177 75.7035 72.5296 75.0561 71.7309 75.0561Z" fill="#FFFFFE"/>
<path d="M77.1297 82.865H46.6652C45.8665 82.865 45.2191 83.5125 45.2191 84.3111C45.2191 85.1098 45.8665 85.7572 46.6652 85.7572H77.1297C77.9283 85.7572 78.5758 85.1098 78.5758 84.3111C78.5758 83.5125 77.9283 82.865 77.1297 82.865Z" fill="#FFFFFE"/>
<defs>
<linearGradient id="paint0_linear_1_296" x1="95.9757" y1="-6.02351" x2="89.9893" y2="180" gradientUnits="userSpaceOnUse">
<stop stop-color="#FFCC9D"/>
<stop offset="1" stop-color="#FFFAF5"/>
</linearGradient>
<linearGradient id="paint1_linear_1_296" x1="88.4093" y1="39" x2="88.4093" y2="135.792" gradientUnits="userSpaceOnUse">
<stop stop-color="#D1D7EC"/>
<stop offset="1" stop-color="#BAC2DF"/>
</linearGradient>
<linearGradient id="paint2_linear_1_296" x1="94.1937" y1="39" x2="94.1937" y2="135.792" gradientUnits="userSpaceOnUse">
<stop stop-color="white"/>
<stop offset="1" stop-color="#DADFF2"/>
</linearGradient>
<linearGradient id="paint3_linear_1_296" x1="125.378" y1="102" x2="125.378" y2="140.755" gradientUnits="userSpaceOnUse">
<stop stop-color="#69D9C9"/>
<stop offset="1" stop-color="#65B2A8"/>
</linearGradient>
<linearGradient id="paint4_linear_1_296" x1="62.07" y1="93.454" x2="62.6608" y2="52.0048" gradientUnits="userSpaceOnUse">
<stop stop-color="#FE965C"/>
<stop offset="1" stop-color="#FDB46C"/>
</linearGradient>
</defs>
</svg>
